# xmcd CD database file
#
# Track frame offsets:
#	150
#	10178
#	29211
#	46386
#	65565
#	79958
#	107275
#	129475
#	144732
#	159024
#	171893
#
# Disc length: 2529 seconds
#
# Revision: 0
# Processed by: cddbd v1.5.2PL0 Copyright (c) Steve Scherf et al.
# Submitted via: CDex 1.51
#
DISCID=8e09df0b
DTITLE=Josefina Cupido - One Woman, One Drum
DYEAR=1996
DGENRE=Rhythmic Soul
TTITLE0=Invocation
TTITLE1=Silencio
TTITLE2=Mary Magdalena
TTITLE3=Pay No Mind
TTITLE4=Family
TTITLE5=Believe
TTITLE6=Wind Is Getting Angry
TTITLE7=Zoo
TTITLE8=Manana
TTITLE9=Magazine Love
TTITLE10=Midnight Morning
EXTD=YEAR: 1996
EXTT0=
EXTT1=
EXTT2=
EXTT3=
EXTT4=
EXTT5=
EXTT6=
EXTT7=
EXTT8=
EXTT9=
EXTT10=
PLAYORDER=
